<svg width="320" height="240" viewBox="0 0 320 240" fill="none" xmlns="http://www.w3.org/2000/svg">
  <rect width="320" height="240" rx="32" fill="#F4FFE6"/>
  <circle cx="104" cy="58" r="18" fill="#FFF4B8" opacity="0.9"/>
  <path d="M157 68C157 52 169 38 185 38C197 38 207 46 211 56C215 48 224 42 235 42C252 42 265 55 265 73C265 95 252 105 245 118C239 129 236 158 212 178C188 158 184 128 177 118C169 106 157 92 157 68Z" fill="#F2645A"/>
  <path d="M212 56C213 35 225 26 240 26" stroke="#734B2D" stroke-width="8" stroke-linecap="round"/>
  <path d="M218 44C230 34 246 35 257 45C243 52 228 54 218 44Z" fill="#78C66E"/>
  <path d="M175 74C175 64 182 58 191 58" stroke="#FF9D90" stroke-width="6" stroke-linecap="round"/>
</svg>
