<svg width="320" height="240" viewBox="0 0 320 240" fill="none" xmlns="http://www.w3.org/2000/svg">
  <rect width="320" height="240" rx="32" fill="#FFF8ED"/>
  <rect x="48" y="54" width="224" height="142" rx="18" fill="#FFE1B8"/>
  <rect x="64" y="74" width="192" height="12" rx="6" fill="#DCA668"/>
  <rect x="64" y="126" width="192" height="12" rx="6" fill="#DCA668"/>
  <rect x="74" y="90" width="26" height="36" rx="5" fill="#FF8B7F"/>
  <rect x="106" y="84" width="22" height="42" rx="5" fill="#67D8B1"/>
  <rect x="134" y="94" width="30" height="32" rx="5" fill="#9BB7FF"/>
  <rect x="170" y="78" width="20" height="48" rx="5" fill="#2E9BCF"/>
  <rect x="196" y="88" width="28" height="38" rx="5" fill="#FFD46D"/>
  <rect x="84" y="142" width="24" height="36" rx="5" fill="#2E9BCF"/>
  <rect x="114" y="136" width="20" height="42" rx="5" fill="#FF8B7F"/>
  <rect x="140" y="146" width="30" height="32" rx="5" fill="#67D8B1"/>
  <rect x="176" y="132" width="18" height="46" rx="5" fill="#9BB7FF"/>
  <rect x="200" y="144" width="26" height="34" rx="5" fill="#FFBE5C"/>
</svg>
