<svg width="320" height="240" viewBox="0 0 320 240" fill="none" xmlns="http://www.w3.org/2000/svg">
  <rect width="320" height="240" rx="32" fill="#FFF7FB"/>
  <path d="M190 78C168 78 150 96 150 118C150 129 154 138 160 146L154 168L180 154C183 155 187 156 190 156C212 156 230 138 230 116C230 94 212 78 190 78Z" fill="#9BB7FF"/>
  <circle cx="190" cy="116" r="7" fill="#FFFFFF"/>
  <circle cx="172" cy="116" r="7" fill="#FFFFFF"/>
  <circle cx="208" cy="116" r="7" fill="#FFFFFF"/>
  <path d="M102 94C102 78 114 66 130 66C146 66 158 78 158 94V120C158 148 135 170 107 170H94" stroke="#244C70" stroke-width="8" stroke-linecap="round" stroke-linejoin="round"/>
  <path d="M92 120C92 102 104 88 122 88H126" stroke="#244C70" stroke-width="8" stroke-linecap="round"/>
  <path d="M126 128L140 112" stroke="#FF8B7F" stroke-width="8" stroke-linecap="round"/>
  <path d="M126 126L140 140" stroke="#FF8B7F" stroke-width="8" stroke-linecap="round"/>
</svg>
